HIERARCHY
ROOT Hips
{
	OFFSET 0.000000 0.000000 0.000000
	CHANNELS 6 Xposition Yposition Zposition Xrotation Yrotation Zrotation
	JOINT LeftUpLeg_virtual
	{
		OFFSET 0.000000 0.000000 0.000000
		CHANNELS 3 Xrotation Yrotation Zrotation
		JOINT LeftUpLeg
		{
			OFFSET 10.205400 -3.823500 0.155100
			CHANNELS 3 Xrotation Yrotation Zrotation
			JOINT LeftLeg
			{
				OFFSET 0.708757 -12.982077 0.567790
				CHANNELS 3 Xrotation Yrotation Zrotation
				JOINT LeftFoot
				{
					OFFSET -0.708756 -10.717838 -2.184338
					CHANNELS 3 Xrotation Yrotation Zrotation
					JOINT LeftToeBase
					{
						OFFSET 0.108149 -7.191104 7.560241
						CHANNELS 3 Xrotation Yrotation Zrotation
						JOINT LeftToe_End
						{
							OFFSET 0.070230 0.081724 4.490308
							CHANNELS 3 Xrotation Yrotation Zrotation
							End Site
							{
								OFFSET 0 0 0
							}
						}
					}
				}
			}
		}
	}
	JOINT RightUpLeg_virtual
	{
		OFFSET 0.000000 0.000000 0.000000
		CHANNELS 3 Xrotation Yrotation Zrotation
		JOINT RightUpLeg
		{
			OFFSET -10.205400 -3.823500 0.005500
			CHANNELS 3 Xrotation Yrotation Zrotation
			JOINT RightLeg
			{
				OFFSET -0.708756 -12.982134 0.610632
				CHANNELS 3 Xrotation Yrotation Zrotation
				JOINT RightFoot
				{
					OFFSET 0.708754 -10.717769 -1.945823
					CHANNELS 3 Xrotation Yrotation Zrotation
					JOINT RightToeBase
					{
						OFFSET -0.108140 -7.191069 7.372968
						CHANNELS 3 Xrotation Yrotation Zrotation
						JOINT RightToe_End
						{
							OFFSET -0.070227 0.081735 4.479403
							CHANNELS 3 Xrotation Yrotation Zrotation
							End Site
							{
								OFFSET 0 0 0
							}
						}
					}
				}
			}
		}
	}
	JOINT Spine_virtual
	{
		OFFSET 0.000000 0.000000 0.000000
		CHANNELS 3 Xrotation Yrotation Zrotation
		JOINT Spine
		{
			OFFSET 0.000000 6.876099 0.125700
			CHANNELS 3 Xrotation Yrotation Zrotation
			JOINT Spine1
			{
				OFFSET 0.000000 5.730043 0.104720
				CHANNELS 3 Xrotation Yrotation Zrotation
				JOINT Spine1_split
				{
					OFFSET 0.000000 5.730043 0.104720
					CHANNELS 3 Xrotation Yrotation Zrotation
					JOINT Spine2
					{
						OFFSET 0.000000 5.730043 0.104720
						CHANNELS 3 Xrotation Yrotation Zrotation
						JOINT Neck_virtual
						{
							OFFSET 0.000000 0.000000 0.000000
							CHANNELS 3 Xrotation Yrotation Zrotation
							JOINT Neck
							{
								OFFSET 0.000000 10.314075 0.188496
								CHANNELS 3 Xrotation Yrotation Zrotation
								JOINT Head
								{
									OFFSET 0.000000 7.643700 -2.377400
									CHANNELS 3 Xrotation Yrotation Zrotation
									JOINT HeadTop_End
									{
										OFFSET 0.000000 43.788605 -13.619600
										CHANNELS 3 Xrotation Yrotation Zrotation
										End Site
										{
											OFFSET 0 0 0
										}
									}
								}
							}
						}
						JOINT LeftShoulder_virtual
						{
							OFFSET 0.000000 0.000000 0.000000
							CHANNELS 3 Xrotation Yrotation Zrotation
							JOINT LeftShoulder
							{
								OFFSET 2.196100 4.412489 0.087492
								CHANNELS 3 Xrotation Yrotation Zrotation
								JOINT LeftShoulder_split
								{
									OFFSET 2.196100 4.412489 0.087492
									CHANNELS 3 Xrotation Yrotation Zrotation
									JOINT LeftArm
									{
										OFFSET 8.771219 -2.981674 -0.026999
										CHANNELS 3 Xrotation Yrotation Zrotation
										JOINT LeftForeArm
										{
											OFFSET 8.512804 0.000000 -0.000000
											CHANNELS 3 Xrotation Yrotation Zrotation
											JOINT LeftHand
											{
												OFFSET 18.484802 0.000000 -0.000000
												CHANNELS 3 Xrotation Yrotation Zrotation
												End Site
												{
													OFFSET 0 0 0
												}
											}
										}
									}
								}
							}
						}
						JOINT RightShoulder_virtual
						{
							OFFSET 0.000000 0.000000 0.000000
							CHANNELS 3 Xrotation Yrotation Zrotation
							JOINT RightShoulder
							{
								OFFSET -2.196100 4.412496 0.070690
								CHANNELS 3 Xrotation Yrotation Zrotation
								JOINT RightShoulder_split
								{
									OFFSET -2.196100 4.412496 0.070690
									CHANNELS 3 Xrotation Yrotation Zrotation
									JOINT RightArm
									{
										OFFSET -8.771282 -2.981682 -0.094208
										CHANNELS 3 Xrotation Yrotation Zrotation
										JOINT RightForeArm
										{
											OFFSET -8.494598 0.000000 0.000000
											CHANNELS 3 Xrotation Yrotation Zrotation
											JOINT RightHand
											{
												OFFSET -18.483803 0.000000 0.000001
												CHANNELS 3 Xrotation Yrotation Zrotation
												End Site
												{
													OFFSET 0 0 0
												}
											}
										}
									}
								}
							}
						}
					}
				}
			}
		}
	}
}
MOTION
Frames: 4
Frame Time: 0.03333333
-2.189439 45.028481 -3.981840 0.000000 0.000000 0.000000 4.884226 -8.744193 -0.804850 -150.109362 -31.056802 15.536669 138.256129 -17.222583 -3.724173 47.132089 -19.620089 -12.951403 2.481883 0.567822 1.886354 0.000000 0.000000 0.000000 7.516143 -14.677846 -0.774396 -111.409189 52.631044 -31.991247 130.015888 6.401651 -2.316064 25.698344 26.827130 62.065663 3.055031 -0.328774 0.725582 0.000000 0.000000 0.000000 8.919491 -17.580265 0.062206 31.194683 6.161142 0.724228 5.226533 1.084398 1.115128 -0.715043 0.952317 -0.460325 0.000000 0.000000 0.000000 7.962778 1.052191 1.887002 7.439171 -0.155672 2.366655 -2.417013 36.079491 -24.171485 0.000000 0.000000 0.000000 6.961779 1.561877 0.584104 1.339479 -4.502396 10.470138 4.114435 -1.427685 2.580073 -37.577966 18.777479 15.125905 -3.295335 -7.642564 -2.002230 0.000000 0.000000 0.000000 8.023631 1.566789 1.244210 -1.693458 -4.500184 -28.794209 3.614754 0.159204 -2.336819 -50.430463 7.607528 -8.159147 1.298684 20.951522 -1.203482 0.000000 0.000000 0.000000 
-2.179283 44.583008 -3.534527 0.000000 0.000000 0.000000 4.786072 -9.693617 -0.879278 -151.105040 -30.423268 16.834036 138.926157 -21.321274 -3.392929 50.344839 -21.968419 -5.321131 0.404716 0.204608 2.208956 0.000000 0.000000 0.000000 7.689506 -13.792686 -0.862804 -104.255249 49.753130 -39.154169 129.109836 5.753472 -2.445405 20.668419 23.054320 60.982087 2.636300 -0.339280 0.607700 0.000000 0.000000 0.000000 9.140954 -16.433404 -0.334728 30.622952 7.283260 0.526397 4.767197 1.419003 0.961388 -0.380126 0.697914 0.574269 0.000000 0.000000 0.000000 8.330310 1.072294 1.717125 8.851538 -0.834062 2.543951 -1.156086 34.916221 -24.846956 0.000000 0.000000 0.000000 6.663637 1.736191 0.247989 1.343651 -4.030870 9.622219 3.887979 -2.319415 1.445185 -35.976082 16.557767 21.062029 -3.206553 -7.343474 -1.472539 0.000000 0.000000 0.000000 8.391360 1.678382 1.029065 -1.560650 -3.144522 -29.953566 2.741886 0.596281 -2.726343 -44.012168 3.098179 -15.320678 1.534252 22.187921 -1.436948 0.000000 0.000000 0.000000 
-2.238788 43.532028 -3.204416 0.000000 0.000000 0.000000 4.294084 -11.264053 -1.605932 -147.220028 -30.324688 19.403731 137.660140 -24.115825 -2.778916 51.107454 -22.889400 1.461825 -5.031378 -0.325246 2.567064 0.000000 0.000000 0.000000 7.069917 -13.001439 -1.697985 -96.785898 43.994252 -42.890497 127.226494 5.728388 -1.809654 12.054642 16.646288 57.135813 5.531981 -0.023463 0.515954 0.000000 0.000000 0.000000 8.419867 -14.345781 -1.471492 29.525672 8.157093 0.839496 4.303979 1.669139 0.705793 -0.066975 0.826209 0.955424 0.000000 0.000000 0.000000 8.392445 1.012823 1.381372 9.496027 -1.208034 3.004003 -0.234827 33.345475 -24.721223 0.000000 0.000000 0.000000 6.286591 1.790481 -0.082653 1.223432 -3.347590 8.909002 3.496630 -3.599557 -0.180734 -33.666682 13.640456 25.403531 -2.709023 -6.695462 -0.740638 0.000000 0.000000 0.000000 8.513203 1.598568 0.616543 -0.973538 -1.013998 -29.413926 2.219526 1.476938 -2.960505 -38.053149 -0.783319 -19.689733 1.178593 25.792533 -1.397283 0.000000 0.000000 0.000000 
-2.442369 42.034683 -2.869419 0.000000 0.000000 0.000000 3.056829 -12.500636 -2.993785 -138.604332 -30.026912 23.784718 133.911036 -24.794405 -3.263493 50.037283 -21.186417 7.364989 -9.053306 -0.575027 1.975230 0.000000 0.000000 0.000000 5.548863 -12.355334 -3.008633 -89.142233 36.177057 -43.138293 124.337365 6.502546 -0.578956 3.225254 10.783583 51.317516 8.986214 0.377806 0.214084 0.000000 0.000000 0.000000 6.934568 -11.790098 -3.051125 27.933141 8.524491 1.621452 3.802826 1.801100 0.471124 0.157363 1.241572 0.942440 0.000000 0.000000 0.000000 8.063159 0.921598 1.026406 9.549596 -1.188985 3.626669 0.168322 31.772899 -23.953224 0.000000 0.000000 0.000000 5.707570 1.789513 -0.303964 0.977917 -2.594342 8.305373 2.925936 -4.794607 -1.430785 -31.344346 12.253846 27.718359 -1.907275 -5.112526 -0.027813 0.000000 0.000000 0.000000 8.212080 1.402287 0.221590 -0.215159 1.130110 -27.358994 2.455438 2.006900 -2.733072 -34.501126 -4.384692 -20.411341 0.375397 30.139272 -1.233913 0.000000 0.000000 0.000000 
